<?xml version="1.0" standalone="no"?>
<!DOCTYPE svg PUBLIC "-//W3C//DTD SVG 20010904//EN"
 "http://www.w3.org/TR/2001/REC-SVG-20010904/DTD/svg10.dtd">
<svg version="1.0" xmlns="http://www.w3.org/2000/svg"
 width="1024.000000pt" height="1024.000000pt" viewBox="0 0 1024.000000 1024.000000"
 preserveAspectRatio="xMidYMid meet">

<g transform="translate(0.000000,1024.000000) scale(0.100000,-0.100000)"
fill="#FFFFFF" stroke="none">
<path d="M5015 10016 c-94 -58 -155 -101 -130 -92 11 4 24 8 29 9 12 3 40 -52
125 -243 40 -91 78 -169 83 -175 7 -7 8 71 4 230 -7 259 -12 315 -30 315 -6 0
-42 -20 -81 -44z"/>
<path d="M5206 9933 c-3 -15 -10 -77 -16 -138 -27 -274 -56 -484 -69 -497 -4
-5 -40 65 -80 155 -41 89 -106 225 -146 302 l-71 140 -706 -6 -706 -5 -73 -65
c-41 -36 -168 -137 -284 -224 -115 -88 -310 -238 -431 -335 -408 -323 -448
-355 -534 -420 -97 -75 -508 -411 -775 -634 -259 -217 -336 -294 -390 -387
-25 -44 -49 -79 -54 -79 -5 0 -14 14 -21 31 -8 19 -24 35 -42 41 -15 6 -28 14
-28 18 0 5 125 110 277 233 153 124 334 271 403 328 69 56 150 123 180 148 30
24 105 85 165 136 61 50 180 147 265 215 85 68 218 176 295 240 77 64 295 240
485 392 190 151 356 287 369 301 22 24 24 57 2 57 -35 0 -1571 -1227 -2314
-1849 -93 -78 -157 -160 -187 -239 -32 -84 -77 -267 -91 -367 -19 -145 -2
-507 29 -595 2 -8 11 28 18 80 15 117 63 342 99 470 50 177 99 254 284 444
118 120 220 210 711 623 151 128 320 271 375 319 249 215 1155 938 1241 990
30 18 58 19 584 16 439 -2 551 -5 541 -15 -9 -9 -133 -13 -504 -17 l-492 -5
-210 -159 c-115 -87 -318 -237 -450 -334 -489 -359 -649 -487 -1331 -1057
-291 -244 -372 -320 -424 -397 -65 -97 -155 -293 -208 -453 -50 -149 -146
-529 -177 -700 -18 -94 -33 -522 -34 -948 l-1 -218 -62 3 c-70 3 -70 4 -45 73
9 22 13 42 11 44 -6 6 -97 -97 -116 -132 -10 -18 -18 -53 -18 -79 l0 -48 115
0 115 0 0 -547 c1 -805 11 -999 81 -1486 45 -319 85 -513 119 -572 16 -27 54
-99 85 -158 65 -122 81 -140 255 -280 132 -107 503 -417 655 -548 133 -114
396 -337 686 -580 422 -354 498 -418 648 -548 l143 -125 417 3 c229 1 504 -2
611 -8 107 -6 243 -13 303 -16 125 -7 147 9 26 19 -100 8 -286 40 -399 67
-195 47 -461 173 -648 306 -86 62 -191 150 -142 120 327 -203 571 -324 766
-381 135 -39 476 -106 540 -106 3 0 2 -4 -1 -10 -3 -5 1 -10 9 -10 9 0 74 -77
145 -174 71 -95 135 -177 142 -181 14 -9 28 5 194 211 l115 142 127 1 c71 1
245 6 388 11 143 5 321 9 395 7 74 -1 230 -1 345 0 l210 3 105 82 c100 78 466
370 780 623 80 64 197 158 260 208 63 51 196 160 295 242 242 202 407 340 481
400 33 28 132 111 220 185 293 248 358 320 404 442 23 62 90 301 85 306 -2 2
-20 -25 -40 -60 -115 -196 -271 -356 -759 -777 -277 -239 -458 -393 -576 -492
-69 -57 -249 -208 -400 -335 -359 -301 -846 -700 -890 -730 -35 -23 -44 -24
-301 -30 -186 -5 -268 -4 -273 4 -3 6 8 21 26 33 37 25 91 79 80 79 -4 0 -44
-15 -89 -34 -138 -57 -307 -101 -508 -131 -94 -15 -342 -30 -320 -21 6 3 78
14 160 26 142 20 398 73 512 106 84 24 243 89 344 139 312 157 635 457 809
752 54 91 130 262 150 336 11 41 19 51 54 69 86 43 153 104 551 498 401 397
505 494 566 526 43 22 29 30 -15 9 -57 -27 -187 -145 -496 -450 -157 -154
-328 -319 -380 -366 -99 -89 -226 -189 -239 -189 -4 0 -4 21 0 47 4 27 8 78 8
114 l1 66 63 41 c34 22 98 71 142 107 90 76 351 325 340 325 -4 0 -52 -39
-107 -87 -225 -197 -401 -333 -432 -333 -3 0 -6 15 -6 33 0 28 8 37 65 76 57
39 116 91 103 91 -2 0 -40 -20 -84 -45 -43 -25 -83 -44 -88 -42 -9 3 -35 87
-36 113 0 13 218 102 435 179 304 107 427 199 534 399 35 66 101 262 101 301
0 39 14 30 35 -22 25 -60 182 -273 201 -273 8 0 14 4 14 9 0 9 -57 95 -112
168 l-31 42 36 93 c28 75 58 189 57 217 -1 7 -44 -100 -84 -206 -15 -40 -32
-73 -37 -73 -4 0 -13 10 -20 23 -29 57 -86 130 -116 148 -37 23 -37 23 -23
165 5 55 14 147 19 206 7 81 14 112 27 125 40 40 179 266 239 388 96 196 132
292 149 391 36 213 35 209 33 110 -1 -64 2 -90 11 -93 9 -4 12 22 12 104 l1
108 94 74 c150 118 159 107 -87 114 -116 4 -248 7 -294 7 -65 0 -83 3 -88 16
-3 9 -6 56 -6 105 l0 89 210 0 c209 0 210 0 219 23 14 33 34 232 26 256 -3 12
-20 28 -36 36 -27 15 -29 18 -22 58 14 73 7 307 -11 442 -40 294 -153 625
-284 835 -33 53 -48 70 -50 56 -5 -22 16 -78 73 -201 158 -339 247 -705 244
-1005 -2 -170 -3 -171 -84 -55 -38 55 -97 129 -130 165 -34 36 -84 97 -110
135 -27 39 -81 113 -121 166 -94 125 -134 188 -134 213 0 29 132 556 139 556
3 0 18 -35 32 -78 15 -42 68 -194 119 -337 80 -227 190 -611 190 -667 0 -10 5
-18 10 -18 18 0 11 120 -15 247 -38 185 -123 433 -259 756 -25 59 -61 172 -81
250 -78 307 -108 374 -226 503 -272 296 -600 622 -658 654 -9 5 83 -91 204
-213 243 -245 428 -454 499 -564 51 -80 54 -88 27 -73 -11 5 -52 22 -93 36
-94 34 -115 48 -128 89 -12 36 -449 475 -550 553 -30 23 -61 47 -67 52 -7 6
-13 24 -13 39 0 100 -121 380 -231 535 -246 346 -724 693 -1152 835 -54 18
-97 35 -95 36 2 2 171 9 375 15 l372 11 122 -88 c67 -48 174 -126 238 -172
305 -220 1115 -861 1276 -1011 22 -21 56 -43 75 -49 19 -6 136 -72 260 -145
124 -73 279 -164 345 -201 182 -102 162 -49 168 -448 3 -300 7 -356 26 -457
29 -152 34 -169 104 -345 81 -205 107 -321 114 -512 3 -84 3 -153 0 -153 -9 0
-42 67 -57 115 -42 135 -136 393 -220 605 -54 135 -105 269 -115 298 -27 84
-27 56 1 -64 14 -60 43 -190 65 -289 21 -99 46 -200 55 -225 9 -25 72 -159
140 -298 l124 -253 0 -297 c0 -163 3 -307 6 -320 4 -14 13 -22 23 -20 14 3 17
49 23 448 4 254 12 467 18 497 10 45 23 63 48 63 4 0 7 -229 7 -509 0 -280 3
-513 7 -516 4 -4 14 -5 23 -1 14 5 15 62 12 568 l-3 563 -83 350 c-45 193
-107 474 -136 625 -91 467 -97 494 -109 516 -15 29 -100 99 -361 299 -591 453
-701 538 -845 654 -641 516 -784 629 -1060 837 l-145 109 -100 6 c-55 4 -346
7 -647 8 -448 1 -554 4 -585 15 -21 8 -101 21 -178 30 -78 8 -148 18 -157 21
-12 5 -18 -1 -22 -22z m1791 -237 c54 -41 175 -139 268 -218 94 -79 220 -183
280 -233 189 -153 556 -464 600 -508 l20 -20 -32 19 c-75 45 -332 233 -674
495 -178 136 -531 395 -662 486 -32 22 -38 22 -487 27 -701 8 -730 8 -640 16
41 4 335 7 652 8 l577 2 98 -74z m-2830 -11 c51 1 91 0 90 -1 -1 -1 -71 -27
-156 -58 -269 -98 -465 -209 -703 -398 -349 -277 -592 -654 -623 -970 -7 -65
-8 -66 -54 -96 -25 -17 -128 -114 -229 -216 -120 -121 -194 -188 -215 -195
-25 -9 -45 -30 -81 -87 -72 -111 -94 -131 -152 -139 -27 -4 -62 -14 -77 -22
l-28 -14 20 39 c51 100 286 367 597 680 134 134 165 179 84 122 -29 -21 -179
-174 -236 -240 -21 -25 -133 -142 -249 -260 -116 -118 -227 -240 -247 -270
-43 -67 -59 -117 -93 -288 -33 -164 -56 -232 -135 -397 -148 -308 -275 -694
-286 -870 l-4 -70 44 130 c24 72 67 204 96 294 48 152 85 245 221 561 l54 124
8 -44 c5 -25 21 -88 37 -140 69 -230 88 -332 69 -387 -43 -133 -76 -181 -252
-369 -95 -102 -192 -216 -217 -255 -25 -39 -69 -107 -97 -150 -52 -78 -53 -81
-53 -154 l0 -75 -125 0 c-69 0 -125 2 -125 4 0 2 29 23 65 46 68 44 74 50 51
50 -13 0 -118 -78 -124 -92 -2 -5 -49 -8 -105 -8 l-102 0 0 344 c0 313 -3 371
-21 354 -3 -4 -8 -162 -11 -352 l-6 -346 -29 0 -28 0 0 441 0 442 36 100 c20
55 59 152 88 216 80 176 255 518 255 499 1 -10 -8 -57 -19 -105 -27 -114 -56
-314 -70 -482 -15 -180 -33 -267 -70 -341 -17 -34 -29 -64 -27 -66 16 -16 138
260 181 407 38 131 116 530 161 824 24 149 17 262 -19 332 -14 29 -26 58 -26
65 0 7 38 45 84 85 170 146 1355 1133 1661 1384 44 36 175 137 290 224 116 87
223 169 239 182 l29 25 271 -9 c149 -4 312 -8 363 -8z m738 -302 c73 -41 76
-45 90 -137 l6 -38 115 4 c128 4 128 4 139 77 10 64 21 81 53 81 16 0 57 12
93 26 60 24 71 25 189 19 299 -14 426 -33 590 -86 134 -44 239 -95 353 -172
179 -122 278 -209 467 -412 271 -290 331 -483 202 -652 -13 -18 -28 -33 -32
-33 -4 0 -14 17 -23 38 -9 20 -28 57 -42 81 -20 35 -25 58 -25 110 0 66 -36
235 -64 302 -37 89 -248 301 -425 428 -326 233 -474 308 -701 352 -151 29
-154 21 -5 -11 290 -63 348 -97 705 -409 217 -190 360 -330 376 -368 8 -18 14
-50 14 -72 l0 -40 -43 24 c-42 24 -127 58 -127 51 0 -2 24 -18 53 -34 29 -16
67 -42 85 -57 31 -26 32 -29 26 -79 -4 -28 -8 -52 -9 -54 -1 -1 -89 44 -196
100 -242 127 -586 290 -744 351 -198 77 -359 136 -362 133 -5 -4 96 -70 143
-93 21 -11 102 -46 179 -78 132 -54 598 -268 620 -285 6 -4 69 -38 140 -75
225 -117 207 -104 200 -145 -4 -19 -12 -44 -18 -56 -12 -22 -15 -21 -167 62
-218 118 -392 192 -637 270 l-213 68 -191 188 c-130 128 -198 188 -213 188
-23 0 -186 124 -186 141 0 6 -4 8 -9 5 -18 -11 2 -52 49 -101 26 -27 51 -63
55 -80 l6 -30 -33 32 c-51 49 -71 53 -246 46 -105 -4 -161 -3 -165 4 -4 6 4
26 16 44 42 62 42 64 -1 30 -38 -30 -72 -65 -156 -166 l-25 -30 -1 46 c0 44 2
48 89 132 84 83 87 87 70 103 -12 11 -19 13 -19 5 0 -11 -77 -87 -146 -145
-18 -14 -40 -26 -50 -26 -34 0 -596 -216 -819 -315 -93 -41 -284 -138 -468
-237 -92 -50 -171 -88 -174 -84 -4 3 -7 25 -7 48 l-1 42 85 53 c115 71 488
256 690 341 183 78 487 190 619 228 46 13 87 27 90 30 3 4 -3 4 -14 1 -11 -4
-65 -14 -120 -23 -266 -43 -533 -138 -900 -321 -231 -115 -398 -208 -438 -246
l-30 -28 6 49 c9 75 48 135 168 259 61 63 108 117 105 120 -8 8 -162 -117
-258 -209 -82 -79 -87 -86 -93 -135 -4 -29 -4 -71 0 -94 5 -27 3 -50 -6 -66
-8 -15 -9 -27 -4 -31 6 -4 11 -14 11 -22 1 -8 5 -22 8 -31 5 -12 -3 -22 -28
-37 -20 -12 -37 -18 -40 -14 -11 18 -28 178 -24 230 4 53 9 63 65 132 91 112
315 308 478 417 68 45 96 66 198 151 163 137 236 168 567 241 333 73 318 71
370 40 25 -15 76 -44 115 -66z m-1066 -92 c-8 -10 -72 -65 -144 -122 -71 -57
-158 -131 -194 -164 -82 -76 -71 -57 45 76 100 114 173 176 244 208 57 25 66
25 49 2z m841 -390 c-17 -32 -106 -141 -195 -237 l-84 -92 -138 -32 c-321 -76
-541 -161 -815 -316 -43 -24 -81 -44 -86 -44 -10 0 -48 78 -41 83 2 2 83 47
179 100 264 145 497 255 790 372 146 58 294 124 330 145 36 22 66 40 68 40 1
0 -2 -9 -8 -19z m450 -16 c-13 -13 -33 -28 -44 -32 -20 -6 -20 -7 4 -13 19 -5
12 -8 -33 -14 -65 -8 -100 -36 -153 -119 -28 -45 -31 -47 -77 -47 -45 0 -47 1
-35 21 18 29 235 202 272 216 17 6 44 12 60 12 l29 1 -23 -25z m113 14 c12 -6
36 -24 52 -40 17 -16 59 -48 94 -71 35 -24 84 -66 108 -95 l45 -52 -41 4 c-50
4 -77 23 -159 109 -35 36 -68 63 -74 60 -8 -5 62 -87 139 -160 23 -22 30 -37
26 -52 -5 -20 -1 -22 34 -22 59 0 378 -55 521 -91 445 -109 936 -371 1342
-715 405 -343 629 -620 850 -1049 89 -171 121 -255 185 -479 135 -471 172
-899 120 -1392 -72 -684 -329 -1308 -743 -1804 -202 -242 -510 -531 -731 -684
-310 -217 -758 -415 -1136 -502 -45 -11 -115 -37 -160 -61 -84 -44 -260 -131
-332 -164 -37 -16 -43 -17 -43 -3 0 8 4 13 9 10 5 -4 11 -2 13 3 8 23 101 81
163 101 81 27 140 59 128 71 -5 5 -49 2 -98 -6 -97 -16 -250 -20 -225 -6 8 5
51 11 95 14 157 12 490 85 700 153 164 54 276 99 419 171 390 194 567 322 887
642 317 317 488 549 665 903 164 327 262 642 320 1023 23 149 28 223 32 436 3
228 1 281 -22 490 -63 555 -204 965 -469 1364 -97 146 -133 193 -246 315 -48
52 -96 105 -107 118 -42 51 -365 340 -494 443 -76 61 -359 244 -475 307 -396
218 -854 342 -1365 372 -287 17 -521 -7 -914 -91 -303 -65 -603 -174 -825
-301 -46 -26 -85 -48 -87 -48 -2 0 -36 -21 -76 -47 -426 -272 -887 -720 -1077
-1043 -24 -41 -57 -97 -73 -125 -17 -27 -43 -81 -58 -120 -15 -38 -45 -103
-65 -143 -123 -246 -267 -789 -295 -1120 -16 -183 -8 -626 14 -766 63 -401
184 -761 370 -1103 240 -439 497 -755 876 -1074 73 -62 282 -211 395 -281 177
-110 476 -250 697 -326 117 -41 530 -147 614 -159 25 -3 41 -9 37 -13 -8 -8
-109 2 -153 14 -22 6 -22 4 8 -21 60 -50 110 -104 115 -124 10 -36 1 -32 -208
101 -107 68 -133 80 -240 109 -310 85 -708 263 -968 433 -425 279 -772 612
-1011 973 -352 528 -517 960 -598 1557 -17 129 -22 211 -22 393 0 210 3 248
32 430 41 257 67 361 153 625 67 205 103 290 244 586 92 193 131 255 255 404
184 221 424 455 650 633 154 122 159 127 154 142 -4 10 0 15 11 15 9 0 13 -5
9 -11 -5 -8 -1 -8 14 0 27 14 42 37 19 28 -10 -4 -17 -2 -17 4 0 6 9 9 20 6
13 -3 100 35 253 112 253 128 360 172 542 225 152 45 456 112 560 125 44 6
116 15 159 21 44 5 182 13 308 17 l228 6 0 24 c0 14 -13 38 -31 56 l-31 31
-27 -31 c-21 -26 -30 -30 -48 -22 -21 7 -23 15 -23 77 0 61 -3 71 -22 85 l-23
15 21 22 c21 21 22 21 48 5 15 -10 29 -15 32 -12 3 3 -4 10 -15 17 -49 26 -8
54 42 29z m-119 -95 c3 -9 6 -45 6 -80 l0 -64 -43 0 c-24 0 -48 5 -55 12 -7 7
-12 36 -12 64 0 43 4 56 22 68 29 21 74 21 82 0z m-404 -101 c-19 -21 -46 -46
-61 -55 -15 -9 -30 -26 -34 -37 -4 -13 -21 -24 -46 -31 -78 -21 -77 -7 1 51
102 76 164 118 169 113 2 -2 -11 -20 -29 -41z m1040 -85 c43 -34 34 -44 -27
-29 -56 14 -96 38 -88 51 3 6 -8 31 -26 57 l-33 47 70 -50 c39 -27 85 -61 104
-76z m-275 -118 c273 -30 618 -121 889 -236 239 -101 412 -201 641 -367 259
-189 659 -574 815 -786 308 -416 492 -905 550 -1466 6 -60 12 -120 14 -132 4
-26 4 -25 -19 -17 -13 5 -14 8 -3 15 10 7 10 9 -2 9 -9 0 -15 10 -16 23 -2 42
-53 314 -84 448 -89 387 -219 698 -411 985 -194 289 -671 758 -989 971 -196
131 -286 180 -500 271 -511 217 -1089 303 -1600 236 -120 -16 -371 -63 -500
-94 -101 -24 -319 -95 -405 -132 -551 -236 -1100 -679 -1427 -1153 -81 -117
-253 -427 -243 -437 3 -2 -15 -50 -40 -107 -82 -189 -225 -674 -225 -763 0
-23 -4 -28 -25 -28 -14 0 -25 1 -25 3 0 23 47 255 66 327 84 317 191 584 353
883 92 169 294 425 442 561 30 27 79 72 109 100 180 168 359 308 510 402 150
94 229 140 291 170 108 53 327 140 434 173 172 53 489 118 710 146 125 16 521
13 690 -5z m20 -100 c92 -13 312 -56 368 -72 20 -6 37 -16 37 -22 0 -14 -48
-86 -58 -86 -4 0 -59 11 -123 25 -229 48 -345 59 -629 59 -231 0 -282 -3 -400
-23 -74 -13 -161 -31 -192 -41 -31 -10 -60 -15 -63 -12 -3 3 -5 29 -5 58 l0
52 51 11 c96 21 279 52 356 61 99 11 552 4 658 -10z m-1097 -122 l-3 -51 -85
-23 c-47 -13 -133 -38 -192 -57 -121 -39 -126 -37 -135 31 l-5 40 93 31 c112
37 275 80 307 81 22 0 23 -3 20 -52z m1636 3 c37 -10 72 -23 77 -28 5 -5 3
-28 -7 -56 -12 -36 -20 -46 -33 -43 -9 3 -52 15 -96 27 -44 12 -82 24 -84 25
-2 2 5 23 14 48 21 54 28 55 129 27z m-3017 -47 c-5 -29 -4 -32 8 -20 8 7 12
24 9 37 -3 13 5 2 16 -25 17 -39 18 -51 8 -57 -19 -13 -38 -11 -54 5 -17 17
-20 81 -3 70 8 -4 9 1 4 16 -5 16 -4 20 5 15 8 -5 10 -20 7 -41z m2428 5 c344
-41 626 -124 915 -268 226 -113 325 -172 491 -298 123 -93 410 -361 479 -449
14 -17 59 -74 101 -125 180 -224 307 -428 380 -611 140 -351 196 -579 233
-950 6 -53 4 -58 -13 -58 -11 0 -22 4 -25 8 -3 5 -17 78 -31 162 -69 407 -136
629 -281 929 -103 214 -233 399 -458 650 -306 342 -646 590 -1046 761 -490
210 -1077 274 -1585 174 -353 -69 -557 -138 -845 -285 -340 -173 -593 -384
-869 -723 -346 -426 -597 -1028 -644 -1543 l-12 -138 -30 0 c-30 0 -30 1 -33
58 -3 66 52 376 98 553 130 492 396 948 795 1360 271 280 760 568 1158 683
171 49 426 100 622 124 104 13 443 5 600 -14z m1080 -158 c194 -94 515 -311
515 -347 0 -17 -49 -94 -60 -94 -4 0 -49 32 -100 72 -181 139 -470 305 -677
387 l-81 33 14 41 c8 23 16 47 19 54 5 15 177 -53 370 -146z m-2554 69 l15
-49 -82 -37 c-46 -20 -152 -75 -236 -121 l-153 -83 -37 41 c-21 23 -38 44 -38
48 0 23 457 249 505 251 6 0 18 -22 26 -50z m3598 -14 c118 -100 391 -379 361
-371 -14 4 -65 24 -115 45 -49 20 -121 49 -160 62 -38 14 -91 33 -117 42 -37
14 -53 27 -77 65 -17 26 -31 51 -31 55 0 5 11 17 25 28 22 17 25 27 25 79 0
32 3 59 6 59 3 0 40 -29 83 -64z m-510 -28 c10 -38 17 -68 15 -68 -16 0 -74
46 -70 55 2 7 10 32 17 55 7 24 14 39 16 34 2 -5 11 -39 22 -76z m-4299 9 c0
-23 6 -53 13 -67 7 -14 10 -44 7 -69 l-5 -45 -105 -32 c-58 -17 -147 -48 -199
-68 -52 -20 -98 -35 -101 -34 -4 2 78 85 182 185 105 101 194 180 199 177 5
-3 9 -24 9 -47z m2505 43 c670 -50 1254 -305 1740 -761 283 -266 516 -569 638
-829 59 -128 141 -343 175 -462 51 -178 113 -514 112 -606 -1 -24 -4 -21 -27
23 -14 28 -31 57 -38 65 -7 8 -25 78 -40 155 -69 366 -148 605 -288 875 -147
285 -421 614 -704 847 -566 466 -1285 691 -1989 622 -211 -20 -501 -88 -719
-168 -632 -231 -1162 -708 -1468 -1319 -140 -281 -221 -534 -267 -837 -12 -77
-28 -151 -36 -165 -7 -14 -25 -47 -39 -75 l-25 -50 0 40 c0 22 7 94 14 160 41
338 159 696 341 1029 220 402 543 759 902 998 123 82 356 202 512 263 285 111
707 196 1011 204 30 0 118 -4 195 -9z m-2010 -40 c3 -5 1 -10 -4 -10 -6 0 -11
5 -11 10 0 6 2 10 4 10 3 0 8 -4 11 -10z m2192 -114 c200 -32 484 -109 658
-178 365 -145 776 -440 1033 -742 263 -309 412 -566 528 -914 71 -212 145
-587 130 -665 -14 -77 -136 -161 -291 -202 -39 -10 -74 -21 -78 -25 -5 -4 47
-41 115 -81 68 -40 147 -97 177 -126 l54 -52 -5 -108 c-12 -243 -114 -592
-263 -898 -69 -142 -205 -365 -223 -365 -4 0 -41 21 -82 46 -135 83 -282 166
-286 161 -3 -3 59 -82 138 -177 79 -94 144 -175 146 -180 9 -23 -162 -223
-351 -409 l-86 -84 -88 79 -88 79 94 -101 94 -101 56 51 c90 81 287 290 374
395 l28 34 25 -24 24 -24 -69 -80 c-38 -44 -138 -153 -224 -243 -146 -152
-173 -192 -133 -192 18 0 238 212 338 327 387 441 651 986 747 1543 11 63 24
116 30 118 6 2 11 26 11 52 0 54 13 71 30 39 23 -42 -6 -273 -60 -482 -28
-107 -107 -343 -145 -432 -66 -155 -256 -499 -339 -613 -74 -103 -176 -224
-265 -315 -135 -139 -241 -242 -276 -269 -16 -12 -31 -26 -33 -30 -6 -14 -24
-8 -19 6 9 23 -25 44 -66 42 -47 -2 -48 -1 -214 224 -31 41 -69 89 -85 106
l-30 32 52 96 c28 53 47 96 42 96 -19 0 -84 -60 -137 -127 -30 -37 -55 -71
-55 -75 0 -4 42 -55 93 -114 50 -58 104 -121 120 -139 l27 -33 -26 -32 c-39
-45 -239 -175 -389 -251 -272 -137 -632 -234 -949 -255 l-109 -7 23 33 c64 90
269 274 563 504 169 133 314 271 323 309 5 22 0 38 -25 72 -62 87 -85 152 -85
240 0 94 15 129 114 265 33 47 95 133 136 193 42 59 81 107 88 107 16 0 124
-72 277 -186 69 -52 129 -94 132 -94 3 0 -10 28 -30 63 -67 117 -163 320 -163
343 0 31 36 123 100 259 179 376 242 574 321 1006 58 318 102 432 224 582 48
60 175 151 224 162 47 10 37 20 -33 33 -36 7 -115 29 -178 50 -118 39 -139 52
-466 276 -67 47 -149 95 -182 107 -33 12 -60 25 -60 28 0 4 38 44 85 91 47 47
85 88 85 93 0 19 -110 134 -200 209 -293 246 -549 369 -996 479 -111 27 -230
59 -264 70 -59 19 -65 19 -109 4 -25 -9 -127 -34 -225 -56 -99 -21 -218 -51
-265 -65 -245 -75 -494 -199 -699 -351 -72 -53 -312 -278 -312 -293 0 -3 47
-46 105 -95 l106 -90 -35 -12 c-57 -19 -170 -89 -334 -206 -200 -142 -200
-142 -509 -224 -56 -14 -100 -30 -97 -35 3 -5 28 -20 55 -33 66 -34 177 -141
229 -220 73 -112 114 -231 175 -512 112 -510 152 -632 337 -1016 89 -185 99
-212 93 -244 -7 -38 -91 -235 -151 -355 -60 -119 -53 -117 146 57 80 70 164
136 187 148 40 20 45 20 75 5 23 -11 48 -41 83 -99 27 -46 85 -133 129 -194
101 -140 116 -173 116 -255 0 -68 -24 -133 -84 -228 -25 -40 -26 -44 -11 -78
23 -54 117 -142 390 -359 235 -187 477 -410 505 -464 l12 -24 -108 7 c-206 13
-420 56 -651 130 -145 47 -419 185 -563 283 -106 72 -115 80 -112 107 5 44 69
166 113 213 29 32 39 51 39 77 0 105 -114 49 -241 -120 -35 -46 -67 -84 -71
-84 -29 0 -296 268 -394 396 l-58 76 23 42 c20 40 53 83 176 237 25 31 45 64
45 74 0 14 -10 11 -57 -16 -32 -18 -95 -57 -141 -86 -100 -65 -137 -80 -157
-63 -24 20 -130 181 -188 285 -155 282 -276 674 -303 987 l-7 78 64 61 c35 34
109 91 164 128 55 36 101 71 102 76 0 6 -25 17 -57 26 -111 30 -220 99 -270
169 l-21 30 21 142 c74 505 289 1010 588 1383 153 190 408 424 602 552 324
214 769 379 1180 437 137 20 511 15 657 -8z m-1976 -141 c11 -4 19 -11 17 -15
-4 -13 -178 -130 -193 -130 -6 0 -32 14 -56 32 l-43 31 39 34 c22 19 66 52 98
72 l58 38 30 -28 c16 -15 39 -31 50 -34z m-236 -153 c-2 -2 -18 7 -34 21 -16
13 -27 28 -24 31 4 3 19 -6 35 -21 15 -14 26 -29 23 -31z m-22 -17 l40 -16
-39 -32 c-21 -17 -76 -67 -122 -111 l-83 -80 -32 35 c-64 71 -67 59 35 146 51
44 104 87 118 96 24 17 25 17 34 -2 5 -11 27 -27 49 -36z m4092 -187 l140
-137 -47 -47 -46 -47 -24 19 c-12 11 -87 85 -166 165 l-143 146 32 51 32 52
41 -33 c22 -17 104 -94 181 -169z m-2207 60 l-3 -33 -120 -23 c-449 -84 -698
-184 -975 -393 -41 -31 -86 -69 -100 -83 -13 -15 -39 -36 -57 -47 -39 -24 -53
-58 -29 -71 122 -68 413 -364 444 -451 10 -29 51 -89 103 -153 47 -57 94 -122
103 -143 16 -35 17 -43 3 -97 -18 -71 -18 -73 86 -134 40 -24 113 -73 162
-110 50 -37 142 -102 205 -145 63 -43 132 -92 152 -107 l37 -29 99 50 c116 60
136 64 67 16 -28 -20 -79 -60 -114 -89 l-65 -54 -85 58 c-47 31 -120 86 -162
121 -132 111 -325 246 -335 236 -3 -3 17 -22 45 -43 27 -22 72 -57 100 -79 30
-23 51 -48 51 -59 0 -19 -1 -19 -22 1 -21 19 -74 47 -268 143 -31 15 -62 35
-69 44 -9 10 -15 52 -18 114 -5 120 -18 149 -115 260 -96 110 -94 108 -176
248 -81 136 -175 249 -287 344 -42 36 -82 68 -88 72 -6 4 -9 8 -7 10 3 2 39
33 80 69 232 202 453 338 712 436 135 52 196 69 418 114 237 48 232 48 228 7z
m-2162 -99 l42 -41 -80 -92 c-169 -191 -335 -432 -455 -663 l-64 -122 -51 20
c-28 11 -61 25 -74 32 l-24 13 48 94 c98 193 231 398 360 556 92 113 223 244
244 244 7 0 31 -19 54 -41z m2164 1 c0 -26 -24 -35 -130 -50 -138 -18 -326
-59 -419 -89 -198 -66 -426 -193 -586 -327 -33 -28 -55 -40 -64 -35 -18 11
140 134 289 224 221 132 375 186 795 275 117 25 115 25 115 2z m2943 -54 c43
-32 55 -36 107 -36 l58 0 0 -33 c0 -18 9 -64 21 -101 34 -111 26 -139 -29 -96
-34 27 -37 25 -45 -18 -11 -69 -19 -69 -73 -1 -44 56 -50 70 -55 125 -3 34
-16 88 -27 120 -34 93 -36 101 -19 88 8 -6 36 -28 62 -48z m-5763 40 c0 -2
-16 -45 -35 -95 -19 -49 -35 -96 -35 -103 0 -7 -21 -23 -48 -36 -49 -23 -80
-67 -68 -98 4 -11 0 -15 -17 -12 -14 2 -21 9 -21 21 2 21 -4 22 -27 1 -14 -13
-12 -3 8 47 22 55 25 73 19 131 l-6 68 42 0 c33 0 59 10 108 40 60 37 80 46
80 36z m5310 -230 c99 -114 122 -144 222 -290 l67 -98 -27 -22 c-47 -39 -103
-69 -111 -60 -4 5 -36 50 -71 99 -50 70 -228 311 -281 381 -8 10 83 94 102 94
5 0 49 -47 99 -104z m-2432 21 c15 -25 15 -30 2 -40 -8 -7 -16 -23 -18 -36 -3
-30 9 -21 -92 -71 -47 -24 -109 -58 -137 -76 -29 -19 -81 -48 -115 -65 -35
-17 -76 -41 -93 -53 -16 -13 -59 -37 -95 -54 -49 -23 -69 -28 -83 -21 -10 6
-17 15 -15 21 3 9 -73 58 -90 58 -1 0 10 -18 24 -40 15 -22 34 -40 42 -40 9 0
24 -8 34 -17 17 -15 21 -15 51 0 17 9 75 39 127 66 136 71 133 49 -4 -35 -52
-31 -75 -67 -37 -57 16 4 25 -8 55 -72 20 -43 36 -83 36 -90 0 -7 11 -20 25
-29 13 -9 22 -22 19 -30 -7 -18 129 -40 191 -30 53 7 85 -12 85 -53 0 -24 -64
-93 -86 -93 -7 0 -14 -9 -17 -20 -4 -15 -14 -20 -41 -20 -29 0 -37 4 -42 24
-16 66 18 96 62 55 l24 -22 0 26 c0 29 -24 47 -64 47 -31 0 -46 -25 -46 -77 0
-80 16 -110 89 -161 l33 -24 28 27 c28 27 28 27 39 6 14 -26 31 -27 31 -2 0
10 7 24 15 31 17 14 21 65 5 55 -5 -3 -10 -15 -10 -25 0 -24 -18 -36 -33 -21
-7 7 -6 16 6 29 30 33 19 56 -13 27 -10 -9 -25 -13 -34 -9 -28 11 -18 40 24
68 70 46 65 115 -10 154 -43 21 -43 22 -14 22 16 0 40 -7 52 -16 12 -8 22 -11
22 -5 0 24 -46 41 -111 41 -61 0 -70 3 -88 26 -12 15 -21 35 -21 45 0 16 -6
18 -37 14 -22 -3 -48 0 -63 7 -29 16 -70 73 -70 99 0 43 401 321 427 296 12
-13 2 -1181 -11 -1194 -3 -3 -19 0 -36 7 -44 18 -49 51 -15 100 15 21 24 44
20 50 -9 15 -65 -64 -65 -93 0 -29 47 -75 86 -86 19 -5 30 -15 32 -29 2 -12
-1 -22 -7 -22 -7 0 -11 -32 -11 -87 0 -117 -5 -123 -67 -88 -82 48 -294 194
-385 267 -130 103 -128 98 -129 275 l-1 148 -13 -80 c-8 -44 -14 -82 -14 -84
-1 -2 -17 29 -37 68 -20 41 -62 100 -95 136 -59 62 -70 84 -46 86 57 5 143
-38 199 -100 56 -62 108 -162 108 -207 0 -41 32 -79 154 -182 50 -42 121 -104
159 -139 64 -60 85 -72 100 -57 4 4 -28 42 -70 85 -80 82 -86 90 -97 152 l-7
37 44 0 c24 0 67 7 95 15 l52 16 -14 27 c-8 15 -28 43 -45 62 -24 28 -30 31
-31 16 0 -17 -7 -18 -84 -14 l-84 6 -6 -37 c-3 -20 -5 -52 -5 -71 l1 -35 10
30 c6 17 14 32 18 35 3 3 9 13 13 23 10 26 135 25 168 -2 l24 -20 -38 -16
c-64 -27 -92 -29 -123 -9 -21 14 -26 15 -19 4 12 -18 34 -130 26 -130 -10 0
-56 34 -92 66 -19 17 -52 47 -74 67 -31 27 -44 49 -59 98 -10 35 -27 80 -37
99 -19 38 -138 167 -179 194 -59 39 44 45 118 7 68 -35 95 -73 107 -154 l11
-72 62 0 62 0 0 91 c0 86 -2 93 -30 129 -51 64 -166 138 -275 175 -68 23 -85
25 -85 8 0 -12 -19 -26 -88 -66 -20 -12 -23 -10 -36 20 -17 41 -68 249 -62
255 8 9 121 -69 152 -104 27 -32 32 -35 52 -24 14 8 39 10 67 5 28 -4 45 -2
45 4 0 5 -26 14 -57 18 -56 9 -58 10 -71 48 -13 40 -32 188 -26 195 9 10 76
-31 119 -70 36 -33 43 -45 34 -56 -19 -22 19 -5 71 32 25 18 90 61 145 95 110
69 105 63 193 173 35 42 80 88 100 102 35 24 37 24 65 7 16 -9 36 -30 45 -45z
m694 -257 c-2 -16 -9 -30 -16 -30 -6 0 -33 -18 -61 -40 -46 -37 -85 -51 -85
-32 0 15 85 90 125 110 22 12 40 21 41 22 0 0 -1 -13 -4 -30z m2100 -290 c26
-47 47 -91 45 -97 -1 -7 -34 -28 -74 -47 l-71 -34 -51 103 c-28 57 -51 106
-51 109 0 3 6 6 14 6 8 0 34 11 57 25 65 38 77 32 131 -65z m-4107 -46 c33
-21 32 -36 -2 -34 -42 3 -50 1 -33 -9 8 -6 26 -7 41 -4 20 4 35 -3 63 -27 37
-33 81 -88 75 -95 -4 -3 -138 22 -324 59 l-60 12 35 33 c40 38 124 81 158 81
12 0 34 -7 47 -16z m997 -29 c21 -14 61 -31 90 -39 40 -10 48 -16 35 -21 -21
-9 -100 0 -127 15 -10 5 -28 23 -40 40 -27 38 -9 40 42 5z m1578 15 c-37 -12
-82 -12 -75 0 3 6 27 10 53 9 38 -1 42 -2 22 -9z m-1844 -55 c102 -50 160
-100 192 -167 24 -48 29 -112 10 -124 -6 -4 -28 -10 -48 -14 l-37 -7 -6 63
c-11 118 -43 157 -155 190 -50 15 -56 14 -119 -5 -81 -26 -106 -14 -55 25 17
14 32 32 32 40 0 8 4 14 9 14 5 0 13 9 16 21 9 28 46 20 161 -36z m1992 2 c24
-24 12 -28 -58 -16 -63 10 -143 5 -187 -12 -14 -5 -23 -5 -23 1 0 9 35 21 115
40 56 13 133 6 153 -13z m-4266 -56 l57 -23 -21 -51 c-11 -29 -37 -102 -58
-164 -21 -62 -41 -117 -44 -122 -10 -15 -146 41 -146 61 0 22 80 240 109 296
16 30 26 41 34 34 7 -5 38 -19 69 -31z m5749 -47 c35 -76 99 -263 99 -287 0
-11 -21 -23 -66 -37 -36 -11 -72 -20 -79 -20 -12 0 -114 279 -118 325 -2 15
13 28 62 53 35 17 66 32 68 32 2 0 18 -30 34 -66z m-1356 6 c3 -5 0 -10 -7
-10 -8 0 -22 -6 -31 -12 -15 -11 -7 -12 43 -10 66 4 99 -3 84 -18 -5 -5 -65
-16 -132 -24 -123 -16 -308 -68 -361 -103 -24 -15 -26 -15 -58 20 -18 20 -33
41 -33 47 0 11 50 26 265 79 167 41 220 48 230 31z m-3145 -7 c0 -5 42 -8 93
-9 66 0 125 -8 207 -28 63 -16 123 -29 133 -29 20 -1 19 -3 -64 -69 l-56 -45
-117 33 c-65 19 -163 43 -219 55 -142 29 -145 31 -67 68 65 31 90 37 90 24z
m-149 -147 c19 -8 90 -23 159 -35 176 -30 230 -43 230 -54 0 -5 -16 -7 -37 -4
-127 20 -287 29 -438 24 -120 -4 -158 -2 -130 4 29 7 159 63 181 78 1 1 17 -5
35 -13z m1595 -27 c18 -20 18 -21 0 -35 -17 -12 -23 -10 -52 14 -42 35 -42 42
-1 42 22 0 41 -8 53 -21z m-968 4 c-10 -2 -26 -2 -35 0 -10 3 -2 5 17 5 19 0
27 -2 18 -5z m131 -87 c82 -87 110 -148 120 -272 9 -106 8 -105 90 -157 30
-19 36 -31 47 -84 16 -81 59 -136 122 -157 25 -9 54 -16 64 -16 10 0 18 -5 18
-11 0 -8 -19 -10 -65 -6 -36 4 -65 2 -65 -2 0 -13 22 -28 55 -35 113 -26 113
-27 135 -132 17 -84 33 -110 71 -118 44 -8 120 -69 224 -177 130 -137 141
-154 137 -222 -3 -44 -8 -57 -20 -57 -20 0 -249 98 -283 122 -17 11 -37 43
-54 85 -33 86 -123 236 -172 289 -21 22 -77 73 -125 112 -122 101 -195 193
-184 235 3 12 24 36 46 52 23 17 51 38 63 48 21 17 21 17 -18 2 -22 -9 -60
-29 -86 -45 -78 -51 -101 -39 -142 70 -13 36 -36 89 -51 118 -14 28 -26 60
-26 71 0 35 22 71 44 71 20 0 20 0 0 -14 -17 -14 -18 -17 -4 -39 45 -73 134
-197 138 -192 3 3 0 35 -7 72 -10 51 -10 82 -2 126 12 68 2 101 -46 158 -31
35 -103 149 -103 162 0 18 21 2 79 -57z m-73 1 c21 -32 21 -33 3 -32 -25 2
-32 10 -35 40 -4 34 7 31 32 -8z m-381 -46 c83 -29 186 -65 230 -79 44 -15 82
-28 84 -29 2 -2 -12 -28 -33 -58 -35 -53 -106 -115 -131 -115 -7 0 -27 22 -44
48 -55 86 -148 135 -344 182 -70 17 -84 18 -96 6 -11 -12 -8 -18 27 -40 l40
-25 -16 -68 c-13 -52 -16 -121 -17 -293 0 -221 1 -227 33 -350 17 -69 43 -155
57 -190 14 -35 23 -65 21 -67 -7 -7 -82 195 -112 297 -15 52 -35 136 -45 185
l-19 90 6 -70 c7 -93 48 -270 85 -367 75 -192 269 -412 498 -563 74 -49 129
-91 123 -93 -23 -7 -167 80 -301 181 -135 102 -215 187 -277 292 -35 61 -40
57 -8 -7 30 -60 103 -168 114 -168 4 0 7 -6 7 -13 0 -19 74 -127 156 -227 74
-92 88 -104 80 -68 -7 27 -61 100 -162 217 -65 76 -68 80 -21 36 29 -27 83
-79 119 -115 67 -65 209 -150 253 -150 22 0 36 19 -109 -157 -45 -55 -114
-148 -153 -207 -77 -113 -105 -145 -65 -73 34 60 58 161 50 206 -4 20 -47 118
-96 218 -102 210 -130 276 -192 468 -59 182 -78 259 -122 497 -20 108 -46 235
-59 281 -39 143 -120 279 -226 382 l-51 50 33 7 c18 3 146 5 283 4 l250 -1
150 -54z m-1489 -64 c5 -4 -53 -237 -60 -244 -7 -7 -154 12 -163 21 -5 5 45
191 68 252 l7 21 73 -24 c40 -13 74 -25 75 -26z m5954 9 c0 -3 18 -74 40 -158
32 -126 63 -279 95 -470 l5 -28 -78 0 c-116 0 -120 2 -127 69 -22 183 -69 465
-90 532 -4 11 10 21 52 36 54 20 103 29 103 19z m-3974 -79 c13 -16 24 -36 24
-45 0 -11 -19 3 -55 38 -30 30 -55 58 -55 63 0 13 60 -26 86 -56z m-26 -42
c19 -19 32 -35 29 -35 -3 0 -20 16 -39 35 -19 19 -32 35 -29 35 3 0 20 -16 39
-35z m5 -35 c17 -14 39 -60 32 -66 -2 -2 -23 16 -46 41 -32 34 -38 44 -23 42
11 -2 28 -9 37 -17z m1636 -94 c-11 -13 -42 -33 -211 -131 -30 -18 -63 -35
-72 -38 -32 -11 -19 9 23 38 22 16 44 36 49 45 11 20 93 66 163 90 56 20 67
19 48 -4z m-3735 -27 l76 -12 -6 -59 c-4 -33 -10 -66 -13 -74 -8 -21 -89 -18
-140 6 -40 18 -42 21 -37 52 10 54 25 98 34 98 5 0 44 -5 86 -11z m1952 -48
c15 -10 36 -29 47 -41 l20 -23 -31 16 c-28 14 -59 23 -148 42 l-29 6 23 24
c21 23 25 23 57 10 19 -8 46 -23 61 -34z m643 -192 c23 -12 22 -14 -30 -25
-68 -16 -102 -1 -131 56 -19 38 -26 90 -14 103 3 3 39 -23 79 -58 40 -34 83
-69 96 -76z m1801 -36 c-14 -5 -122 63 -127 80 -2 7 -7 21 -11 32 -23 60 -7
54 70 -25 48 -49 76 -85 68 -87z m-2548 138 c17 -19 16 -21 -24 -58 -43 -38
-110 -84 -143 -96 -15 -6 -16 -4 -7 14 20 36 131 159 144 159 7 0 21 -9 30
-19z m1229 -32 c-10 -37 -23 -30 -23 13 1 38 2 41 14 25 8 -10 12 -27 9 -38z
m-223 -157 c36 -27 91 -66 123 -86 57 -37 57 -37 57 -86 0 -28 -2 -50 -5 -50
-3 0 -32 19 -63 42 l-57 42 46 -55 c71 -85 79 -100 79 -150 0 -55 -7 -79 -24
-79 -6 0 -69 42 -140 93 -112 80 -131 98 -147 137 -12 32 -18 38 -18 23 -1
-33 -2 -36 -12 -55 -19 -34 -35 -19 -47 42 -13 71 -55 165 -80 179 -13 8 -9
10 23 11 40 0 41 -1 78 -72 l38 -73 -7 135 c-3 74 -10 143 -15 155 -6 11 16
-8 48 -41 32 -34 87 -84 123 -112z m-2989 147 c60 -20 63 -26 49 -126 l-12
-89 -63 -17 c-35 -9 -67 -17 -72 -17 -8 0 0 165 12 228 7 36 26 41 86 21z
m2034 -9 c14 -15 15 -23 6 -34 -12 -14 -5 -46 9 -46 5 0 10 -12 12 -27 2 -20
11 -29 38 -38 l35 -12 -35 -11 c-19 -6 -75 -18 -125 -26 -49 -8 -109 -22 -132
-30 -65 -23 -56 -2 46 107 49 52 94 104 100 116 14 26 23 26 46 1z m4978 -2
c-4 -7 -6 -21 -5 -30 2 -10 -1 -18 -7 -18 -6 0 -8 -38 -5 -105 5 -90 4 -105
-10 -105 -25 0 -39 39 -34 99 5 61 43 171 59 171 6 0 7 -6 2 -12z m-6843 -103
l0 -85 -35 0 -35 0 0 49 c0 83 9 109 39 114 14 2 27 5 29 6 1 0 2 -37 2 -84z
m4295 -15 c47 -35 75 -73 63 -86 -8 -8 -123 32 -121 41 1 6 -2 15 -7 20 -8 10
-2 65 7 65 2 0 28 -18 58 -40z m-2150 -35 c21 -27 113 -124 205 -215 162 -159
169 -169 220 -270 29 -58 64 -117 78 -132 17 -19 77 -48 183 -89 87 -34 160
-67 162 -73 2 -6 1 -19 -2 -28 -5 -15 -28 -7 -170 57 -90 41 -174 81 -187 89
-12 9 -44 56 -69 106 -52 100 -140 200 -193 218 -31 11 -29 7 28 -49 51 -50
73 -83 122 -186 38 -78 70 -130 86 -141 13 -9 105 -51 204 -93 98 -42 179 -80
179 -83 2 -38 -7 -36 -221 56 -190 81 -204 91 -244 168 -19 36 -73 123 -118
193 -46 69 -108 170 -138 223 -30 53 -83 140 -117 193 -34 53 -63 103 -63 111
0 16 0 16 55 -55z m-2054 -152 c-8 -14 -10 -7 -11 33 0 28 3 54 8 58 11 12 14
-72 3 -91z m-67 65 c14 -52 8 -63 -43 -81 -118 -42 -137 -160 -40 -242 19 -15
40 -24 50 -22 16 4 17 2 8 -15 -6 -11 -9 -36 -7 -55 4 -29 0 -37 -23 -48 -30
-16 -135 -35 -191 -35 -35 0 -38 2 -45 38 -4 20 -7 120 -7 221 l-1 185 60 24
c63 25 162 50 206 51 20 1 28 -5 33 -21z m1964 -15 c83 -35 142 -73 114 -73
-8 0 -23 5 -34 11 -11 6 -51 11 -88 11 -58 0 -216 32 -270 54 -23 10 66 32
133 33 46 1 76 -7 145 -36z m4214 13 c9 -13 9 -369 0 -446 l-7 -55 -42 1 c-23
0 -53 8 -67 17 -26 18 -53 85 -43 110 3 8 37 40 76 71 45 36 71 64 71 76 0 30
-64 94 -125 126 -55 29 -55 29 -55 75 l0 46 93 -5 c50 -2 95 -10 99 -16z
m-1889 -3 c-7 -2 -21 -2 -30 0 -10 3 -4 5 12 5 17 0 24 -2 18 -5z m-991 -59
c-7 -37 -33 -63 -124 -125 -151 -101 -179 -114 -173 -81 2 9 6 29 9 44 7 31
90 94 201 152 75 38 92 40 87 10z m-3798 -56 c3 -29 6 -69 6 -89 l0 -36 -187
-6 c-241 -9 -403 -9 -403 0 0 3 19 31 42 62 52 69 27 51 -33 -24 -24 -30 -47
-55 -51 -55 -5 0 -8 23 -8 50 0 45 -2 50 -22 49 -13 0 -17 -3 -10 -6 16 -6 16
-53 0 -53 -7 0 -3 -9 9 -21 21 -21 21 -22 3 -62 -19 -43 -17 -64 3 -36 52 69
55 71 79 58 46 -25 247 -159 253 -170 4 -6 2 -45 -5 -87 -7 -42 -10 -106 -8
-142 l3 -65 29 58 c16 33 32 87 36 124 5 35 10 67 13 69 2 3 12 -25 21 -61 9
-35 27 -90 41 -120 13 -31 25 -59 26 -63 7 -24 264 -521 304 -586 l48 -79 -12
-306 c-11 -278 -14 -308 -32 -327 -25 -26 -24 -45 6 -198 56 -280 118 -359
360 -462 60 -25 126 -60 146 -78 74 -63 207 -175 317 -265 l112 -93 0 -47 c0
-25 -4 -41 -8 -35 -5 10 -164 118 -231 159 -39 23 6 -16 74 -65 177 -128 159
-107 185 -217 94 -400 230 -647 528 -955 166 -171 525 -449 681 -526 l75 -37
-315 -3 c-172 -1 -323 0 -335 3 -12 2 -91 64 -176 137 -141 121 -247 210 -569
483 -58 50 -155 131 -214 180 -60 50 -205 173 -323 275 -119 102 -247 212
-286 244 -169 141 -570 509 -598 548 -12 18 -38 75 -58 129 -33 90 -41 102
-129 195 -136 145 -157 195 -215 516 -19 106 -49 274 -68 373 -30 168 -32 194
-32 390 1 189 20 1296 23 1303 0 1 12 2 25 2 l23 0 7 -472 c4 -260 4 -536 0
-613 -10 -185 -10 -187 20 -306 36 -147 132 -775 151 -990 l7 -77 145 -151
144 -151 50 25 c27 14 49 27 49 30 0 3 -13 46 -29 97 -60 187 -95 360 -151
738 -52 348 -104 598 -150 718 -28 73 -97 209 -110 217 -14 9 -5 -29 28 -115
32 -87 56 -164 87 -289 32 -128 66 -293 62 -298 -2 -2 -44 81 -93 184 -49 103
-113 221 -143 262 l-53 76 13 105 c10 78 13 224 12 562 l-2 458 347 3 c191 1
372 3 403 5 l56 2 7 -52z m2577 22 c49 -14 68 -38 90 -114 l18 -66 -24 -18
c-22 -18 -201 -59 -211 -50 -2 3 37 47 88 98 81 81 90 94 73 100 -26 9 -50 2
-71 -21 -9 -10 -22 -19 -27 -19 -6 0 -2 9 8 20 10 11 14 20 9 21 -5 0 2 5 16
11 l25 11 -23 4 c-50 9 -138 -78 -245 -242 -60 -92 -85 -121 -54 -65 77 142
104 191 139 242 21 31 38 62 38 67 0 6 12 13 28 17 15 3 32 7 37 9 20 7 51 5
86 -5z m-2003 -42 c9 -13 34 -39 55 -59 20 -20 37 -38 37 -41 0 -3 -16 -9 -35
-12 -26 -5 -39 -15 -48 -33 l-12 -27 -5 28 -5 28 -28 -22 c-56 -44 -127 -2
-127 75 0 66 128 114 168 63z m5911 8 c44 -8 101 -51 101 -76 0 -12 -18 -32
-42 -50 -24 -17 -51 -37 -61 -45 -15 -13 -19 -13 -38 6 -16 16 -20 29 -15 51
7 36 -7 29 -24 -12 -16 -38 -24 -38 -35 3 -8 25 -15 31 -32 30 -33 -4 -29 6
22 60 34 35 52 46 68 43 12 -3 37 -7 56 -10z m-3864 -206 c-9 -14 -54 -36 -90
-43 -19 -4 -9 4 30 23 69 34 68 33 60 20z m2071 -62 c13 -26 21 -48 17 -48 -5
0 -30 16 -57 35 -27 19 -46 35 -42 35 4 0 21 -9 38 -21 37 -27 46 -19 21 18
-11 15 -24 35 -28 43 -8 13 -7 13 9 1 10 -8 29 -36 42 -63z m-1948 42 c11 -18
5 -24 -61 -69 -39 -28 -83 -59 -97 -70 -38 -31 -42 -25 -6 13 111 119 137 146
144 146 4 0 13 -9 20 -20z m28 -85 c-24 -18 -227 -107 -232 -102 -2 2 51 32
117 66 67 34 125 59 128 55 3 -3 -2 -12 -13 -19z m980 -34 c-27 -43 -66 -72
-66 -49 0 13 81 100 88 94 2 -2 -8 -22 -22 -45z m-3051 7 c40 -31 44 -37 50
-93 19 -170 88 -441 159 -624 103 -267 314 -612 374 -611 9 0 45 16 80 34 34
19 62 31 62 27 -1 -3 -26 -51 -58 -107 -86 -152 -77 -140 -97 -124 -57 47
-223 318 -345 560 -120 239 -221 560 -259 825 -18 126 -20 145 -15 145 3 0 24
-15 49 -32z m-112 0 c3 -13 15 -77 27 -143 32 -172 91 -401 141 -540 47 -133
203 -450 292 -592 146 -234 326 -461 529 -667 108 -109 135 -142 127 -153 -6
-7 -17 -13 -24 -13 -7 0 -93 82 -190 183 -179 183 -331 372 -435 540 -28 45
-78 125 -110 177 -193 311 -334 684 -400 1064 l-23 130 23 18 c29 24 37 23 43
-4z m5928 -36 c15 -13 46 -29 70 -36 l44 -14 -2 -58 c-1 -33 -10 -90 -20 -129
-18 -68 -19 -70 -48 -67 -16 2 -54 10 -82 18 l-53 15 0 52 c0 29 5 81 10 117
5 36 10 86 11 112 3 53 -1 54 70 -10z m-246 -9 c-24 -213 -97 -487 -200 -758
-56 -148 -262 -521 -364 -658 l-43 -59 -29 34 c-15 18 -28 39 -29 47 0 8 22
36 50 63 89 86 210 297 324 564 90 213 140 380 190 642 29 146 45 182 83 182
24 0 24 -1 18 -57z m-3435 3 c0 -8 -13 -26 -30 -39 -37 -32 -37 -35 -2 -29 25
3 33 -4 75 -65 62 -91 73 -128 87 -283 11 -132 8 -190 -5 -88 -15 127 -38 224
-72 308 -19 49 -39 90 -44 90 -5 0 -9 -4 -9 -9 0 -7 -117 -74 -172 -99 -4 -2
2 20 12 48 23 62 75 145 103 165 27 19 57 19 57 1z m184 -198 c44 -65 61 -101
77 -168 20 -78 21 -102 16 -282 l-6 -198 30 -102 c18 -59 28 -112 24 -125 -4
-18 5 -42 32 -86 57 -92 134 -234 215 -399 40 -81 75 -147 78 -147 3 -1 77
141 164 314 l159 314 -12 99 c-12 103 -10 127 15 136 11 4 14 1 9 -13 -3 -10
0 -50 6 -87 6 -38 11 -80 10 -94 -3 -66 -327 -750 -355 -750 -18 0 -130 193
-234 404 -46 93 -94 185 -108 205 -14 22 -24 50 -24 72 0 20 -9 81 -20 135
-19 92 -30 125 -30 93 0 -8 -14 -30 -31 -49 l-30 -35 21 40 c11 22 20 45 20
52 0 6 5 13 11 15 9 3 9 10 0 26 l-12 23 -20 -23 -19 -23 3 35 c2 19 -3 52
-11 73 -8 21 -12 40 -9 43 5 5 47 -62 47 -76 0 -5 5 -12 11 -16 9 -5 10 8 5
47 -3 30 -10 119 -16 199 -11 147 -39 281 -75 351 -10 19 -36 59 -58 90 -29
42 -37 62 -32 78 6 20 10 17 50 -33 24 -31 68 -93 99 -138z m-2524 59 c7 -45
35 -169 61 -274 27 -106 49 -195 49 -197 0 -6 -121 -46 -140 -46 -12 0 -23 20
-38 73 -40 139 -117 515 -107 525 1 1 31 7 66 13 35 6 66 12 68 15 13 12 30
-33 41 -109z m6256 91 c-3 -13 -10 -57 -16 -98 -48 -330 -121 -601 -230 -850
-186 -428 -427 -771 -786 -1120 -71 -69 -158 -150 -194 -181 -293 -249 -695
-472 -1054 -584 -463 -143 -655 -172 -1086 -162 -318 7 -516 41 -829 142 -427
138 -903 419 -1255 741 -313 285 -532 574 -765 1006 -143 267 -291 738 -326
1041 l-6 57 29 0 28 0 23 -132 c24 -135 77 -366 110 -473 94 -304 327 -740
552 -1036 144 -189 399 -440 604 -595 216 -163 571 -372 785 -462 215 -91 553
-183 759 -208 158 -18 620 -19 771 0 220 27 538 114 794 216 102 40 379 179
464 232 460 289 910 769 1175 1253 135 247 255 552 311 789 34 140 73 344 78
401 2 22 9 31 28 36 39 11 41 10 36 -13z m-3412 -268 c111 -54 135 -69 135
-87 1 -38 -19 -37 -60 3 l-39 38 -31 -30 c-30 -27 -31 -27 -26 -6 3 12 1 20
-4 16 -5 -3 -9 -12 -9 -20 0 -9 -5 -12 -11 -8 -7 4 -9 20 -6 40 5 27 2 34 -14
39 -34 11 -42 -4 -35 -62 4 -31 3 -52 -3 -49 -17 11 -57 200 -40 194 4 -2 68
-32 143 -68z m3169 -16 l69 -19 -6 -47 c-14 -106 -116 -406 -193 -566 l-44
-94 -35 7 c-19 3 -55 15 -79 25 l-44 19 55 142 c48 124 95 272 160 502 12 46
20 58 32 54 10 -2 48 -13 85 -23z m-3102 -249 c47 -101 60 -143 39 -130 -6 4
-24 30 -40 58 -34 60 -38 54 -11 -18 18 -48 27 -58 64 -69 15 -5 17 -21 17
-144 l0 -139 -76 76 c-90 90 -81 57 15 -58 51 -61 61 -79 61 -111 0 -20 3 -52
6 -69 12 -56 -11 -33 -73 77 -85 149 -88 155 -112 260 -23 102 -27 152 -11
152 6 0 10 -6 10 -13 0 -8 11 -24 26 -38 15 -14 23 -17 19 -8 -3 9 -1 53 4 98
10 75 5 135 -15 206 -12 42 27 -25 77 -130z m-2754 -132 c14 -32 47 -104 73
-160 l48 -102 -51 -30 c-97 -55 -97 -55 -150 51 -48 98 -111 248 -105 253 7 7
125 44 141 45 13 0 26 -18 44 -57z m4157 31 c5 -14 4 -15 -9 -4 -17 14 -19 20
-6 20 5 0 12 -7 15 -16z m-1270 -101 c-9 -50 -25 -103 -31 -103 -10 0 4 99 17
115 17 21 19 19 14 -12z m-1024 -179 c61 -28 147 -90 192 -138 16 -17 43 -59
60 -94 26 -55 31 -77 35 -170 l5 -107 -42 -80 c-62 -120 -70 -124 -70 -40 0
39 5 98 10 133 21 148 -30 270 -177 421 -51 53 -93 97 -93 99 0 8 32 -2 80
-24z m1090 -91 c-22 -43 -56 -96 -76 -118 l-35 -40 5 33 c5 28 127 202 142
202 3 0 -13 -35 -36 -77z m-2768 -48 c22 -38 60 -100 84 -137 24 -37 44 -70
44 -72 0 -6 -128 -86 -139 -86 -12 0 -32 32 -122 195 l-77 139 31 11 c18 6 50
21 72 33 47 24 43 27 107 -83z m2473 -55 c59 -69 114 -140 122 -159 8 -18 17
-66 19 -105 l6 -71 -32 50 c-18 28 -38 59 -46 70 -150 218 -226 358 -185 343
5 -1 57 -59 116 -128z m2949 60 c34 -11 38 -15 33 -39 -7 -36 -114 -233 -150
-276 -31 -38 -69 -50 -132 -41 -81 13 -81 19 -14 131 33 55 80 139 105 188
l44 87 38 -19 c20 -10 54 -24 76 -31z m-2521 -12 c-39 -45 -138 -194 -181
-273 -47 -88 -47 -66 0 30 36 72 179 265 196 265 3 0 -4 -10 -15 -22z m-2653
-384 c51 -74 124 -171 162 -215 l68 -79 -35 -31 c-66 -58 -83 -69 -99 -63 -30
12 -336 411 -336 438 0 3 27 19 59 36 33 16 62 34 66 40 3 5 10 10 14 10 4 0
50 -61 101 -136z m356 -84 c105 -126 209 -235 294 -306 39 -32 72 -66 76 -76
3 -10 10 -16 15 -13 5 4 54 64 109 136 91 116 130 152 130 117 0 -14 -124
-178 -198 -263 -29 -33 -62 -76 -72 -95 -22 -42 -148 -200 -159 -200 -5 0 -25
13 -45 29 l-36 29 82 84 c46 46 98 93 116 103 34 20 41 35 17 35 -20 0 -249
223 -354 345 -127 148 -119 134 -91 156 14 10 28 18 31 16 3 -1 41 -45 85 -97z
m4547 58 c42 -15 57 -24 53 -35 -10 -25 -183 -246 -224 -286 l-39 -38 -42 61
c-22 34 -41 64 -41 67 0 2 46 62 101 134 77 98 106 128 118 123 9 -3 42 -15
74 -26z m693 -24 c-7 -24 -24 -45 -48 -62 l-37 -24 -33 20 -33 21 37 16 c21 8
41 15 46 15 4 0 23 11 42 25 19 14 35 25 35 25 1 0 -3 -16 -9 -36z m-6261 -29
l40 -16 -28 -25 c-32 -28 -49 -30 -67 -9 -7 8 -20 15 -29 15 -35 0 -41 14 -23
52 17 35 17 35 42 18 14 -10 43 -25 65 -35z m2910 -70 c51 -81 116 -225 141
-311 l16 -58 53 140 c64 169 123 299 132 291 3 -4 -3 -28 -15 -55 -38 -84
-129 -325 -147 -387 -9 -33 -22 -77 -29 -99 l-13 -39 -23 74 c-29 96 -80 235
-141 380 -75 179 -63 208 26 64z m-2823 39 c6 -5 -12 -72 -39 -142 -12 -32
-26 -48 -54 -63 -21 -10 -41 -19 -44 -19 -3 0 -5 41 -5 90 0 80 2 90 18 90 10
0 33 11 52 25 34 23 61 31 72 19z m6065 -24 l52 -25 1 -82 c0 -76 -2 -83 -20
-83 -45 0 -70 23 -105 97 -19 41 -35 80 -35 89 0 13 37 36 50 31 3 -1 29 -13
57 -27z m-5963 -6 c3 -8 -1 -32 -10 -52 -12 -29 -17 -34 -24 -22 -8 12 -10 11
-10 -7 0 -12 -5 -25 -11 -29 -7 -4 -9 11 -4 52 4 33 9 62 12 67 8 13 41 7 47
-9z m5817 -54 c10 -36 18 -66 19 -67 0 -2 -4 -3 -8 -3 -5 0 -16 16 -26 36 -9
21 -28 46 -42 56 -35 28 -32 50 8 46 29 -3 32 -7 49 -68z m-5851 -177 l17 -53
-46 0 c-54 0 -93 9 -86 20 8 14 -42 20 -71 10 -59 -23 -37 22 24 48 60 26 80
30 116 29 26 -2 31 -8 46 -54z m5975 22 c70 -26 84 -51 33 -60 -93 -16 -189
-21 -184 -9 2 6 8 32 11 58 l7 46 37 -6 c20 -4 63 -17 96 -29z m-856 -29 l53
-54 -83 -84 c-87 -88 -324 -290 -376 -320 -30 -17 -30 -17 -91 25 -34 23 -62
44 -62 47 0 3 33 30 72 60 80 61 307 262 378 334 24 25 47 46 50 46 3 0 30
-24 59 -54z m-4213 -81 l128 -126 -18 -34 c-10 -18 -31 -45 -46 -60 l-28 -27
-58 53 c-33 29 -99 90 -147 136 l-88 84 28 22 c15 12 41 34 58 49 16 15 33 28
37 28 3 0 64 -56 134 -125z m3603 -115 c1 -9 -151 -117 -260 -185 -271 -170
-560 -277 -927 -342 -145 -26 -176 -28 -422 -28 -233 0 -281 3 -395 23 -390
70 -693 185 -967 369 -160 107 -258 193 -220 193 4 0 75 -43 157 -95 346 -220
652 -340 1035 -404 377 -64 860 -18 1255 119 196 68 512 245 650 363 l40 35
27 -22 c15 -11 27 -23 27 -26z m98 -16 c-9 -10 -38 16 -31 28 4 6 13 4 22 -6
9 -8 13 -19 9 -22z m-3243 -92 c430 -311 730 -429 1254 -496 432 -55 1000 36
1402 225 165 78 345 188 468 287 34 28 45 32 57 22 8 -7 28 -10 44 -8 52 8 23
-21 -113 -110 -340 -223 -566 -329 -852 -401 -273 -69 -444 -91 -699 -91 -624
0 -1175 184 -1618 540 -77 62 -87 76 -65 98 13 13 8 16 122 -66z m94 -212 c34
-23 62 -47 62 -51 0 -11 -91 -78 -106 -79 -13 0 -284 188 -284 197 0 3 18 30
40 59 l40 54 93 -68 c50 -38 120 -88 155 -112z m-1204 79 c83 -28 184 -66 224
-85 65 -31 73 -38 68 -57 -4 -12 -12 -43 -19 -69 -7 -26 -15 -49 -18 -52 -2
-3 -64 39 -136 92 -211 155 -296 222 -282 222 7 0 80 -23 163 -51z m4349 -20
c26 -17 47 -34 47 -39 0 -33 -408 -261 -443 -247 -15 5 -63 86 -55 91 2 2 50
30 108 63 58 33 143 83 189 111 46 29 90 52 96 52 6 0 33 -14 58 -31z m-2902
-198 c74 -37 174 -83 222 -101 48 -18 89 -36 92 -39 5 -9 -33 -94 -47 -102
-21 -13 -252 82 -420 174 l-87 47 47 45 c26 24 49 45 52 45 3 0 66 -31 141
-69z m-676 -69 c28 -18 52 -36 54 -38 2 -2 -21 -30 -52 -63 -69 -75 -91 -135
-90 -246 1 -92 20 -151 102 -314 28 -56 49 -101 47 -101 -13 0 -127 166 -159
231 -54 109 -63 175 -43 295 16 93 14 132 -7 146 -12 7 8 61 29 79 25 20 29 0
11 -50 -19 -55 -20 -61 -9 -61 4 0 17 18 30 40 21 37 21 41 7 64 -13 20 -14
28 -4 45 7 11 18 17 24 13 5 -3 33 -21 60 -40z m3122 3 c12 -22 23 -45 23 -51
0 -15 -119 -64 -297 -124 l-142 -48 -15 33 c-35 73 -35 73 119 130 77 29 167
64 200 78 33 14 67 25 75 24 8 -1 25 -20 37 -42z m808 3 c36 -43 109 -189 97
-197 -26 -17 -35 -62 -19 -88 4 -6 3 -14 -3 -18 -6 -3 -12 0 -14 7 -28 95 -67
175 -119 241 -25 33 -27 40 -16 55 32 40 40 40 74 0z m-85 -99 c46 -72 75
-145 84 -214 18 -132 -65 -365 -164 -460 -16 -16 -30 -26 -30 -23 0 3 14 36
31 73 80 178 92 222 93 345 1 128 -9 159 -81 248 -34 41 -34 44 -19 67 25 38
43 30 86 -36z m-2640 -33 c201 -49 467 -86 623 -86 l67 0 0 -65 0 -65 -42 5
c-24 2 -104 7 -179 9 -160 7 -310 31 -531 86 -89 23 -163 42 -165 44 -2 1 11
28 27 58 29 54 31 56 63 48 17 -4 79 -20 137 -34z m1454 -83 c8 -25 -3 -30
-174 -67 -149 -32 -246 -46 -345 -49 l-80 -2 -3 56 -3 56 128 17 c70 9 198 32
283 50 l155 32 16 -35 c9 -20 20 -46 23 -58z m-2516 46 c73 -64 171 -125 335
-209 171 -88 285 -135 497 -205 80 -26 159 -54 175 -63 43 -21 379 -287 514
-406 62 -55 134 -124 159 -153 25 -29 48 -53 52 -53 3 0 36 41 74 90 50 66 93
108 155 154 91 68 224 175 362 292 73 62 94 74 159 93 118 33 386 124 485 166
144 59 357 171 472 247 81 53 111 68 123 61 28 -18 77 -112 89 -171 8 -41 8
-74 1 -111 -5 -30 -10 -55 -10 -57 0 -1 -44 -25 -97 -52 -54 -28 -154 -79
-223 -114 -387 -199 -907 -357 -1232 -375 l-123 -7 80 -14 c156 -26 354 2 672
94 87 25 221 70 298 101 133 53 392 176 445 213 14 9 56 34 93 54 76 42 77 38
10 -52 -211 -281 -581 -582 -867 -706 -105 -46 -108 -54 -6 -16 117 43 266
119 384 197 118 76 95 43 -33 -48 -161 -115 -334 -187 -531 -224 -93 -17 -425
-45 -533 -45 l-68 0 -19 -46 c-11 -25 -40 -76 -65 -115 -24 -38 -54 -88 -66
-110 -26 -53 -27 -53 -119 127 l-72 141 -153 7 c-273 12 -554 65 -679 128
-153 76 -601 399 -593 427 1 5 -22 30 -52 57 -102 92 -227 252 -209 269 3 3
72 -26 154 -66 215 -102 406 -183 589 -249 173 -62 361 -113 397 -108 13 2
-33 17 -102 34 -206 51 -552 197 -880 372 l-165 88 -19 49 c-12 33 -19 75 -19
125 0 64 5 84 31 137 26 51 62 93 80 93 2 0 25 -18 50 -41z m1943 -471 c4 -47
-9 -68 -116 -176 l-113 -115 -30 24 c-36 28 -47 50 -31 60 6 4 8 12 5 18 -4 6
-3 11 3 11 5 0 42 39 81 88 61 74 77 88 108 93 64 11 92 10 93 -3z"/>
<path d="M1639 7074 c-48 -57 -150 -278 -209 -453 -39 -117 -76 -281 -106
-471 -16 -102 -31 -419 -20 -408 4 3 18 87 31 185 59 451 100 608 242 931 46
106 83 202 81 213 -3 21 -3 21 -19 3z"/>
<path d="M4205 9320 c-125 -33 -184 -60 -263 -123 -42 -34 -107 -84 -143 -112
-82 -62 -197 -167 -153 -140 18 11 67 48 110 83 262 211 256 206 423 264 154
53 166 65 26 28z"/>
<path d="M4800 9311 c0 -10 111 -111 122 -111 4 0 10 11 14 25 8 34 -15 59
-74 79 -53 18 -62 19 -62 7z"/>
<path d="M5392 9307 c-46 -13 -62 -29 -62 -64 0 -17 6 -23 22 -23 28 0 105 45
117 69 18 33 -2 38 -77 18z"/>
<path d="M6350 9206 c0 -3 42 -33 93 -67 50 -34 108 -74 127 -89 67 -51 145
-102 115 -75 -95 84 -335 250 -335 231z"/>
<path d="M5485 9062 c6 -5 102 -37 215 -71 292 -89 430 -139 639 -231 102 -44
190 -79 195 -77 22 7 -133 109 -259 171 -193 95 -376 150 -625 186 -80 11
-152 23 -160 26 -9 3 -11 2 -5 -4z"/>
<path d="M6888 8797 c172 -185 231 -295 251 -472 l8 -70 2 65 c1 75 -20 183
-45 232 -25 49 -122 163 -210 248 l-78 75 72 -78z"/>
<path d="M5332 8620 c0 -14 2 -19 5 -12 2 6 2 18 0 25 -3 6 -5 1 -5 -13z"/>
<path d="M4567 1805 c29 -19 55 -35 58 -35 9 0 -46 45 -72 59 -44 23 -36 10
14 -24z"/>
<path d="M3035 8180 c3 -5 8 -10 11 -10 2 0 4 5 4 10 0 6 -5 10 -11 10 -5 0
-7 -4 -4 -10z"/>
<path d="M3341 4242 c40 -37 77 -67 83 -67 21 0 17 43 -6 68 -13 14 -51 34
-86 46 l-64 20 73 -67z"/>
<path d="M6401 3445 c-32 -37 -40 -65 -18 -65 18 1 147 86 140 94 -4 3 -25 6
-49 6 -36 0 -47 -5 -73 -35z"/>
<path d="M4975 7104 c-353 -206 -387 -226 -383 -230 2 -2 29 9 59 25 218 114
286 151 371 203 89 55 127 84 117 92 -2 1 -76 -39 -164 -90z"/>
<path d="M5045 6909 c-16 -10 -36 -27 -45 -37 -8 -11 -32 -22 -54 -25 -21 -3
-49 -13 -61 -21 -19 -13 -22 -21 -16 -43 4 -17 15 -29 27 -31 54 -8 70 -17
120 -64 59 -55 72 -46 26 18 -40 54 -55 65 -102 71 -44 6 -54 27 -17 37 39 10
53 7 90 -25 35 -30 67 -91 67 -129 0 -11 5 -20 10 -20 12 0 12 -4 0 59 -12 63
-42 109 -83 126 l-30 13 24 12 c13 7 34 21 46 32 21 20 21 20 38 -6 11 -16 16
-38 13 -56 -5 -32 6 -41 16 -14 12 32 5 74 -16 98 -23 24 -23 24 -53 5z"/>
<path d="M4577 6676 c-15 -23 -16 -26 -2 -26 17 0 29 22 23 41 -2 6 -12 0 -21
-15z"/>
<path d="M4775 6220 c-15 -7 -9 -9 25 -9 33 -1 41 2 30 9 -18 12 -28 12 -55 0z"/>
<path d="M4703 6203 c-13 -2 -23 -11 -23 -20 0 -12 3 -13 13 -5 7 6 24 16 38
21 25 10 12 12 -28 4z"/>
<path d="M3357 5900 c-4 -14 -10 -65 -12 -115 l-5 -90 15 100 c15 101 16 152
2 105z"/>
<path d="M937 5243 c-10 -10 -8 -66 3 -83 11 -17 10 -21 13 53 2 36 -3 44 -16
30z"/>
<path d="M1206 4793 c13 -59 38 -127 42 -115 2 7 -3 33 -12 59 -9 26 -16 55
-16 65 0 10 -5 18 -10 18 -6 0 -8 -12 -4 -27z"/>
<path d="M1168 4743 c-17 -20 -30 -53 -22 -53 11 0 31 26 38 48 9 27 4 28 -16
5z"/>
<path d="M1387 4478 c30 -164 232 -809 309 -991 19 -43 34 -84 34 -91 0 -6
-34 -50 -76 -96 -81 -92 -171 -216 -162 -226 8 -7 154 162 221 256 l53 75 -97
300 c-54 165 -126 390 -162 500 -68 212 -104 305 -118 305 -5 0 -6 -15 -2 -32z"/>
<path d="M1275 4390 c13 -99 56 -303 87 -410 58 -201 229 -663 250 -677 8 -4
9 0 4 13 -27 66 -190 544 -210 614 -14 47 -48 179 -76 294 -27 115 -53 212
-56 215 -4 3 -3 -19 1 -49z"/>
<path d="M1650 2953 c102 -81 225 -195 692 -635 226 -213 307 -285 362 -322
47 -32 70 -35 30 -4 -59 45 -343 297 -454 403 -364 346 -589 549 -634 571 -31
15 -31 15 4 -13z"/>
<path d="M1300 2524 c0 -35 264 -294 565 -554 72 -62 211 -183 310 -269 99
-87 279 -240 400 -341 121 -102 256 -215 299 -253 128 -110 455 -371 526 -419
63 -43 130 -74 130 -60 -1 4 -76 68 -168 142 -331 269 -626 518 -1317 1115
-218 188 -539 479 -631 573 -44 43 -81 72 -93 72 -12 0 -21 -3 -21 -6z"/>
<path d="M3294 1862 c7 -12 207 -122 222 -122 5 0 -22 17 -61 38 -38 21 -92
51 -119 67 -27 16 -46 24 -42 17z"/>
<path d="M6695 1755 c-82 -41 -192 -90 -242 -110 -51 -20 -93 -39 -93 -41 0
-8 36 5 149 53 122 52 351 162 351 168 0 9 -17 2 -165 -70z"/>
<path d="M6305 1585 c-25 -12 -26 -14 -5 -9 28 7 60 23 45 23 -5 0 -23 -6 -40
-14z"/>
<path d="M6200 1550 c-18 -12 -2 -12 25 0 13 6 15 9 5 9 -8 0 -22 -4 -30 -9z"/>
<path d="M6135 1530 c-13 -5 -14 -9 -5 -9 8 0 24 4 35 9 13 5 14 9 5 9 -8 0
-24 -4 -35 -9z"/>
<path d="M3549 1376 c20 -25 298 -232 401 -298 107 -70 280 -158 280 -143 0 3
-46 28 -102 56 -117 59 -226 130 -418 273 -190 142 -178 134 -161 112z"/>
<path d="M4360 1363 c49 -16 235 -32 252 -22 6 4 -18 10 -53 13 -35 4 -88 11
-118 17 -30 5 -71 9 -90 8 l-36 -1 45 -15z"/>
<path d="M4919 1169 c24 -22 65 -107 133 -274 23 -55 47 -107 55 -115 13 -13
16 -12 32 7 10 12 44 87 76 165 31 79 65 158 76 176 24 42 24 44 -6 30 -27
-12 -100 -145 -129 -234 -9 -28 -23 -59 -30 -69 -12 -17 -15 -14 -30 31 -51
142 -151 304 -189 304 -6 0 -1 -9 12 -21z"/>
<path d="M7171 9811 c176 -157 674 -558 1159 -933 58 -45 157 -123 220 -173
138 -110 602 -471 741 -578 l55 -42 53 -225 c121 -516 220 -893 238 -910 3 -3
3 11 -1 30 -4 19 -27 140 -52 267 -24 128 -69 349 -98 490 -30 142 -58 284
-61 316 -6 45 -13 62 -31 75 -13 9 -124 93 -246 186 -123 93 -293 221 -378
285 -255 193 -656 502 -934 722 -498 393 -690 539 -710 539 -5 0 15 -22 45
-49z"/>
<path d="M9067 7746 c-5 -90 -2 -125 19 -228 22 -106 89 -346 99 -357 25 -24
14 265 -14 391 -19 84 -73 256 -90 285 -5 9 -10 -28 -14 -91z"/>
<path d="M9211 5460 c19 -35 39 -66 46 -68 7 -2 19 14 28 34 9 21 23 46 31 55
14 16 11 17 -38 22 -29 2 -64 8 -77 12 -23 8 -23 7 10 -55z"/>
<path d="M9720 5410 c12 -17 25 -43 30 -59 7 -27 6 -29 -22 -35 -17 -3 -189
-6 -382 -6 -273 0 -364 -3 -406 -14 -74 -20 -230 -86 -230 -98 0 -5 3 -7 8 -5
4 3 144 2 312 -2 176 -4 310 -3 317 2 7 5 121 7 254 6 l241 -3 13 35 c7 19 16
42 19 51 6 12 0 21 -21 34 -15 10 -51 41 -79 71 -55 58 -89 73 -54 23z"/>
<path d="M539 5203 c15 -27 38 -65 51 -86 24 -40 40 -45 20 -5 -24 46 -85 138
-92 138 -4 0 5 -21 21 -47z"/>
<path d="M9765 5160 c-27 -11 -56 -44 -90 -105 l-29 -50 -11 65 c-7 47 -15 66
-26 68 -27 5 -30 -61 -19 -378 11 -311 26 -525 39 -547 4 -8 8 145 10 339 2
326 3 354 20 373 27 29 151 222 151 234 0 13 -17 13 -45 1z"/>
<path d="M9287 5082 c-29 -27 -61 -57 -73 -68 -73 -68 -142 -194 -186 -337
-17 -56 -20 -86 -16 -159 7 -122 26 -137 25 -21 0 172 47 275 219 473 68 79
124 147 124 152 0 23 -47 3 -93 -40z"/>
<path d="M9468 4713 c-4 -349 -7 -417 -21 -468 -59 -203 -175 -453 -363 -782
-57 -100 -104 -190 -104 -201 0 -11 7 -25 14 -32 44 -36 83 -560 48 -642 -12
-28 -269 -257 -633 -564 -620 -522 -665 -560 -1084 -899 -347 -281 -610 -481
-655 -498 -9 -3 -3 -6 13 -6 59 -2 144 55 549 370 283 220 543 428 684 546 45
37 203 169 350 293 707 592 850 720 943 844 111 148 259 381 328 515 85 168
104 248 102 413 -2 140 -13 182 -23 90 -14 -122 -110 -454 -166 -572 l-21 -45
5 40 c7 45 14 126 53 570 26 292 28 342 28 870 l0 560 -22 3 -22 3 -3 -408z"/>
<path d="M9011 4233 c-17 -93 -43 -217 -56 -278 -31 -141 -40 -206 -26 -183
41 64 148 628 119 628 -3 0 -20 -75 -37 -167z"/>
<path d="M8856 4268 c-4 -28 -58 -205 -121 -392 -116 -348 -137 -425 -116
-412 21 13 43 69 118 291 86 257 118 380 127 488 8 87 2 104 -8 25z"/>
<path d="M772 2605 c13 -28 34 -69 46 -92 12 -23 31 -67 42 -97 20 -52 33 -65
302 -293 155 -131 331 -281 392 -333 97 -84 244 -207 790 -664 194 -162 663
-564 806 -690 l125 -111 510 6 c576 7 910 18 898 30 -15 14 -494 29 -947 29
l-446 0 -186 158 c-103 86 -298 252 -433 367 -227 194 -408 347 -732 616 -69
58 -227 191 -350 296 -382 327 -637 541 -648 544 -6 2 -20 28 -30 57 -20 55
-91 160 -136 202 l-26 25 23 -50z"/>
<path d="M9445 2549 c-32 -104 -60 -137 -287 -325 -117 -98 -319 -268 -448
-379 -321 -274 -396 -337 -790 -655 -120 -96 -305 -246 -411 -332 -107 -86
-259 -209 -339 -273 -80 -64 -166 -133 -192 -154 l-46 -38 -554 -7 c-626 -7
-854 -15 -820 -27 33 -12 642 -29 1058 -29 l361 0 24 26 c13 14 166 140 339
280 173 139 383 308 465 375 83 67 227 183 320 257 405 323 537 431 815 666
484 409 489 413 499 454 14 55 35 211 29 217 -3 3 -13 -22 -23 -56z"/>
</g>
</svg>
